<svg width="198" height="221" viewBox="0 0 198 221" fill="none" xmlns="http://www.w3.org/2000/svg">
<g filter="url(#filter0_d_3194_5337)">
<path d="M63.8458 83.2092C59.8721 83.2092 56.6387 79.2466 56.6387 74.358C56.6387 69.4694 59.857 65.5068 63.8458 65.5068C67.8347 65.5068 71.053 69.4694 71.053 74.358C71.053 79.2466 67.8347 83.2092 63.8458 83.2092Z" fill="#544096"/>
<path d="M20.2098 108.381C12.9271 112.025 11.1895 119.965 11.1895 131.913L10.7665 141.539C10.5247 156.736 16.8555 155.172 24.3498 155.172H75.9935L73.1832 125.461C73.1832 119.236 73.1832 112.693 67.215 108.7" fill="url(#paint0_linear_3194_5337)"/>
<path d="M43.5994 118.719C30.7414 118.719 20.3311 113.922 20.3311 108.001C20.3311 102.08 30.7565 97.2822 43.5994 97.2822C56.4424 97.2822 66.8678 102.08 66.8678 108.001C66.8678 113.922 56.4424 118.719 43.5994 118.719Z" fill="url(#paint1_linear_3194_5337)"/>
<path d="M18.533 155.916C19.4244 155.916 20.3461 155.856 21.2678 155.81C22.2045 155.749 23.1715 155.704 24.1536 155.689L39.9429 155.916V154.216L24.1536 153.988C23.1111 153.988 22.129 154.049 21.162 154.11C18.1855 154.292 15.6169 154.444 14.0304 152.88C12.3381 151.18 11.6431 147.414 11.9302 141.296L12.3835 133.462C12.3835 133.234 12.3684 132.991 12.2928 132.779C12.2173 132.551 12.0964 132.354 11.9302 132.187C11.7791 132.02 11.5827 131.868 11.3711 131.777C11.1596 131.686 10.933 131.625 10.6912 131.625L10.2682 141.25C9.95086 148.037 10.7517 151.999 12.867 154.125C14.3628 155.598 16.3421 155.932 18.533 155.932V155.916Z" fill="#32639F"/>
<path d="M24.0478 102.247C24.0478 102.247 24.1686 102.201 24.2442 102.201C24.3197 102.201 24.3802 102.201 24.4406 102.247C21.4792 103.871 19.0012 109.367 26.0875 113.087C29.9102 115.167 34.1559 116.366 38.4923 116.624C38.9456 116.655 39.3686 116.852 39.6859 117.186C39.9881 117.52 40.1694 117.96 40.1543 118.416C25.1205 117.93 20.2553 111.128 20.346 107.94C20.4215 105.966 21.5547 103.962 24.0629 102.262L24.0478 102.247Z" fill="#32639F"/>
<path d="M63.0898 102.08C63.0898 102.08 62.9689 102.034 62.9085 102.034C62.8481 102.034 62.7876 102.034 62.7272 102.08C65.6433 103.704 68.0759 109.2 61.1105 112.92C57.3634 114.985 53.2083 116.199 48.9475 116.442C48.4791 116.472 48.0258 116.685 47.6934 117.034C47.361 117.383 47.1797 117.839 47.1797 118.325V118.522C58.5419 119.949 66.8218 110.946 66.7312 107.773C66.6707 105.815 65.5526 103.795 63.0898 102.08Z" fill="#32639F"/>
<path d="M38.2803 110.4L42.5109 113.801C42.8584 114.074 43.2815 114.226 43.7196 114.226C44.1578 114.226 44.5809 114.074 44.9284 113.801L48.7208 110.795L48.6755 102.187L38.7184 100.927L38.2803 110.416V110.4Z" fill="#F1EAFC"/>
<path d="M45.0195 103.704C50.8215 103.704 56.3666 101.397 60.4764 97.2823C64.571 93.168 66.8827 87.5961 66.8827 81.7814V42.6268C66.8827 41.3515 66.6259 40.0762 66.1424 38.892C65.6589 37.7078 64.9336 36.6299 64.0422 35.7341C63.1356 34.8232 62.0629 34.1096 60.8843 33.6238C59.7058 33.138 58.4366 32.8799 57.1674 32.8799L31.3305 41.063C25.9666 41.063 23.1865 45.648 23.1865 51.0377L23.4585 79.3371C34.8056 102.156 39.7161 102.702 45.0497 103.72L45.0195 103.704Z" fill="url(#paint2_radial_3194_5337)"/>
<path d="M61.5648 81.8272C60.4769 81.8272 59.6006 80.9467 59.6006 79.8536C59.6006 78.7604 60.4769 77.8799 61.5648 77.8799C62.6527 77.8799 63.529 78.7604 63.529 79.8536C63.529 80.9467 62.6527 81.8272 61.5648 81.8272Z" fill="#595158"/>
<path d="M41.756 81.3717C40.6228 81.3717 39.7012 80.4456 39.7012 79.307C39.7012 78.1683 40.6228 77.2422 41.756 77.2422C42.8892 77.2422 43.8109 78.1683 43.8109 79.307C43.8109 80.4456 42.8892 81.3717 41.756 81.3717Z" fill="#595158"/>
<path d="M36.7248 33.8519H36.9515C42.5873 33.8519 45.6847 33.0017 44.0982 30.5574C44.0982 30.5574 37.3896 22.4805 34.8513 17.774C34.7455 17.5615 34.7002 17.3338 34.7153 17.106C34.7304 16.8783 34.8211 16.6506 34.957 16.4684C35.093 16.2862 35.2894 16.1496 35.501 16.0585C35.7125 15.9826 35.9543 15.9674 36.1809 16.0129C36.1809 16.0129 72.5642 25.1222 75.6012 39.7122C75.6012 39.7122 76.3566 49.0947 70.3884 55.7141C66.2636 60.2839 58.6787 63.9276 54.3423 63.9124C47.4222 63.9124 33.8541 57.8244 33.9296 58.0369C36.1356 65.3395 29.1702 66.1594 29.1702 66.1594C28.0067 78.2747 22.4012 68.2545 22.2954 68.0571C20.165 64.9448 4.0131 39.6363 36.7399 33.8671L36.7248 33.8519Z" fill="#1D1D1B"/>
<path d="M40.0787 86.6093C41.0759 86.6093 42.1184 86.5638 43.1912 86.4879C46.7419 86.2298 49.7184 83.33 50.4286 79.4434L50.8818 77.0142C51.3049 74.7521 49.9451 72.5507 47.8751 72.1408C43.8862 71.3058 39.8067 71.0021 35.7423 71.2602C33.4306 71.4272 31.6174 73.4616 31.5268 75.997L31.3606 80.0355C31.2246 83.2692 33.3852 86.0628 36.2711 86.3968C37.5252 86.5334 38.7944 86.6093 40.0636 86.6093H40.0787ZM38.5526 73.1428C41.5594 73.158 44.5661 73.4768 47.5125 74.0841C48.5097 74.2814 49.1594 75.4505 48.9478 76.6347L48.4946 79.079C47.9355 82.085 45.7144 84.3168 43.0552 84.499C40.8795 84.6812 38.6886 84.6508 36.5129 84.4079C34.6544 84.1954 33.2643 82.2976 33.355 80.0962L33.5061 76.0578C33.5665 74.5244 34.594 73.3098 35.9085 73.2339C36.7697 73.158 37.6461 73.1276 38.5526 73.1276V73.1428Z" fill="#1D1D1B"/>
<path d="M64.6465 87.0654C65.5077 87.0654 66.3387 87.035 67.1697 86.9743C70.0556 86.7466 72.3069 84.029 72.2767 80.7952L72.2465 76.7567C72.2465 74.2213 70.4787 72.1262 68.182 71.8681C64.1327 71.4734 60.0381 71.6252 56.019 72.3236C53.9339 72.6576 52.5288 74.7983 52.8612 77.0756L53.2389 79.5199C53.7979 83.4369 56.714 86.4277 60.2496 86.8073C61.7152 86.9743 63.1808 87.0502 64.6465 87.0654ZM67.0035 85.0006C64.8278 85.1524 62.6218 85.1069 60.4612 84.8488C57.817 84.5603 55.6564 82.2527 55.188 79.2314L54.8103 76.7871C54.629 75.5877 55.324 74.4339 56.3212 74.2821C60.159 73.6141 64.0723 73.4622 67.9554 73.8418C69.2548 73.9784 70.252 75.2385 70.2671 76.7719L70.2973 80.8104C70.2973 83.0118 68.8771 84.864 67.0035 85.0006Z" fill="#1D1D1B"/>
<path d="M51.5467 78.2289C50.6401 78.2289 49.7184 78.4567 49.2954 79.3676H49.25L48.7363 73.2948L55.1125 73.1885L53.5411 79.4435L53.9944 79.0488C53.5864 78.1227 52.4683 78.2593 51.5618 78.2441L51.5467 78.2289Z" fill="#1D1D1B"/>
<path d="M32.5998 75.2684L33.2797 73.7198L23.2471 69.4385L23.3528 72.232L32.5998 75.2684Z" fill="#1D1D1B"/>
<path d="M42.1189 115.213C42.2397 115.213 42.3455 115.183 42.4513 115.137C42.557 115.092 42.6477 115.031 42.7233 114.94C42.7988 114.864 42.8592 114.758 42.9046 114.651C42.9499 114.545 42.965 114.439 42.965 114.317C42.965 114.211 42.9348 114.09 42.8895 113.983C42.2397 112.511 41.0461 110.507 38.1904 110.127C35.1535 109.717 33.839 108.427 33.2799 107.455C33.1741 107.258 32.9928 107.121 32.7662 107.06C32.5547 107 32.3129 107.03 32.1165 107.136C31.9201 107.242 31.769 107.425 31.7085 107.652C31.6481 107.865 31.6783 108.108 31.7841 108.305C32.5396 109.641 34.2167 111.326 37.9487 111.827C39.928 112.101 40.7741 113.361 41.3332 114.697C41.3936 114.849 41.4994 114.985 41.6505 115.076C41.7865 115.167 41.9527 115.213 42.1189 115.213Z" fill="#32639F"/>
<path d="M45.1255 115.213C45.2917 115.213 45.4428 115.168 45.5939 115.076C45.7298 114.985 45.8356 114.864 45.9112 114.712C46.5004 113.376 47.3163 112.116 49.2957 111.843C53.0277 111.342 54.7048 109.656 55.4603 108.32C55.5207 108.229 55.566 108.108 55.5811 108.002C55.5963 107.88 55.5811 107.774 55.5811 107.652C55.5509 107.546 55.5056 107.44 55.43 107.349C55.3545 107.258 55.279 107.182 55.1732 107.121C55.0674 107.06 54.9617 107.03 54.8408 107.015C54.7199 107 54.6141 107.015 54.5084 107.045C54.4026 107.075 54.2968 107.136 54.2062 107.212C54.1155 107.288 54.04 107.379 53.9947 107.485C53.4356 108.487 52.1211 109.748 49.0841 110.157C46.2285 110.537 45.0348 112.541 44.3851 114.014C44.3398 114.12 44.3096 114.226 44.3096 114.333C44.3096 114.439 44.3247 114.56 44.37 114.667C44.4153 114.773 44.4758 114.864 44.5513 114.955C44.6269 115.031 44.7175 115.107 44.8233 115.152C44.9291 115.198 45.0499 115.213 45.1557 115.213H45.1255Z" fill="#32639F"/>
<path d="M41.998 153.684L43.0104 156.189C43.7054 156.751 49.0843 156.751 49.7794 156.189L52.4235 154.063L53.8891 146.396C51.0334 144.559 46.274 142.996 42.4362 144.195L41.998 153.699V153.684Z" fill="#F1EAFC"/>
<path opacity="0.6" d="M45.7902 103.462C46.8176 103.462 47.8299 103.295 48.812 102.991L48.9027 102.748C44.1735 103.796 32.9925 95.8102 29.5627 85.4863L26.4502 85.3193C32.0255 94.7322 37.1476 103.462 45.8053 103.462H45.7902Z" fill="#C7BECC"/>
<path opacity="0.6" d="M38.3564 110.218C39.4292 110.218 40.6077 110.841 41.8014 111.812L41.8769 102.703C40.7588 102.521 39.7012 102.065 38.7795 101.397L38.3564 110.218Z" fill="#C7BECC"/>
<path opacity="0.6" d="M41.998 151.148H51.5169V153.881H41.998V151.148Z" fill="#C7BECC"/>
<path d="M18.1709 141.068C19.4854 140.764 20.7697 140.536 22.0238 140.339C22.0238 140.339 22.0238 140.309 22.0238 140.294C22.7792 137.454 22.6735 134.479 21.7216 131.7C21.6914 131.594 21.6762 131.488 21.6914 131.397C21.6914 131.291 21.7367 131.184 21.782 131.093C21.8273 131.002 21.9029 130.911 21.9935 130.85C22.0842 130.79 22.1748 130.729 22.2957 130.698C22.4015 130.668 22.5224 130.653 22.6281 130.668C22.7339 130.668 22.8548 130.714 22.9454 130.759C23.0361 130.805 23.1267 130.881 23.2023 130.957C23.2778 131.032 23.3232 131.139 23.3534 131.23C24.3355 134.114 24.5017 137.181 23.8067 140.142C28.687 139.55 33.6579 140.096 38.2512 141.721C38.4023 141.766 38.5232 141.857 38.6138 141.979C38.7045 142.1 38.7649 142.237 38.78 142.373L38.9613 143.952L42.512 144.104C42.7387 144.104 42.9502 144.195 43.1164 144.347C43.2675 144.499 43.3581 144.696 43.3581 144.909C43.3581 145.121 43.2524 145.319 43.1013 145.471C42.9351 145.622 42.7236 145.698 42.4969 145.698H42.4516L38.1756 145.531C37.9792 145.531 37.7828 145.44 37.6317 145.319C37.4806 145.182 37.39 145.015 37.3597 144.833L37.1482 143.041C31.6635 141.159 25.5745 141.037 18.5637 142.632C18.458 142.662 18.3371 142.677 18.2313 142.662C18.1104 142.662 18.0047 142.616 17.914 142.556C17.8082 142.495 17.7327 142.434 17.6572 142.343C17.5816 142.252 17.5363 142.161 17.5061 142.055C17.4758 141.948 17.4758 141.842 17.5061 141.736C17.5212 141.63 17.5665 141.523 17.6269 141.432C17.6874 141.341 17.7629 141.265 17.8687 141.204C17.9745 141.144 18.0651 141.098 18.186 141.083L18.1709 141.068Z" fill="#32639F"/>
<path d="M56.5025 153.532H23.9872C23.3375 153.532 22.7029 153.79 22.2497 154.261C21.7813 154.732 21.5244 155.354 21.5244 156.007C21.5244 156.66 21.7813 157.297 22.2497 157.753C22.7181 158.223 23.3375 158.482 23.9872 158.482H56.5025V153.532Z" fill="url(#paint3_linear_3194_5337)"/>
<path d="M111.999 120.177L110.413 117.384C109.869 116.427 109.083 115.653 108.146 115.107C107.194 114.56 106.137 114.271 105.034 114.271L62.3045 114.438C61.6094 114.438 60.9295 114.666 60.3554 115.091C59.7963 115.501 59.3733 116.093 59.1617 116.761L47.1951 153.684C46.6361 157.89 50.1414 158.3 52.7856 158.436L61.9116 120.268C62.1232 119.631 62.516 119.084 63.0599 118.705C63.6039 118.325 64.2536 118.128 64.9184 118.158L111.984 120.162L111.999 120.177Z" fill="#3C1968"/>
<path d="M52.7858 158.497H97.6907C98.2347 158.497 98.7635 158.33 99.2017 158.011C99.6398 157.692 99.9723 157.252 100.138 156.736L111.833 121.468C111.969 121.073 111.999 120.663 111.939 120.253C111.878 119.843 111.727 119.464 111.486 119.13C111.244 118.796 110.927 118.522 110.564 118.34C110.201 118.158 109.793 118.052 109.385 118.052H64.4804C63.9365 118.052 63.4076 118.219 62.9695 118.538C62.5313 118.856 62.1989 119.297 62.0327 119.813L50.3229 155.081C50.187 155.476 50.1567 155.886 50.2172 156.295C50.2776 156.705 50.4438 157.085 50.6705 157.419C50.9122 157.753 51.2295 158.026 51.5921 158.208C51.9548 158.391 52.3627 158.482 52.7707 158.482L52.7858 158.497Z" fill="url(#paint4_linear_3194_5337)"/>
<path opacity="0.8" d="M76.6582 140.916L77.7007 135.496C77.731 135.329 77.8065 135.177 77.9123 135.04C78.018 134.904 78.154 134.813 78.3051 134.752L83.6992 132.52C83.8654 132.459 84.0316 132.429 84.2129 132.444C84.3791 132.459 84.5453 132.535 84.6813 132.642L88.8968 135.845C89.0479 135.951 89.1687 136.118 89.2292 136.285C89.2896 136.468 89.3047 136.65 89.2745 136.832L88.2471 142.237C88.2168 142.404 88.1413 142.556 88.0355 142.677C87.9298 142.814 87.7938 142.905 87.6427 142.965L82.2487 145.197C82.0825 145.258 81.9163 145.288 81.7501 145.258C81.5838 145.243 81.4176 145.167 81.2817 145.061L77.0662 141.857C76.9151 141.751 76.8093 141.599 76.7337 141.417C76.6733 141.25 76.6431 141.053 76.6884 140.87L76.6582 140.916Z" fill="#703FA7"/>
<path d="M21.9476 69.3558C16.2904 45.6008 37.7296 33.3038 46.101 33.1475L46.1772 33.8014C46.7414 34.5264 46.4364 35.5784 45.5215 35.8912C37.9431 38.4927 23.8079 54.8128 28.4281 70.0524L21.9476 69.3558Z" fill="#AC8EE8"/>
<path d="M46.1344 33.7832C46.0287 33.8395 45.9231 33.8958 45.8024 33.938C37.6683 36.6965 22.6828 53.6697 26.8027 69.8548L28.6136 70.0519C24.041 54.9645 38.0304 38.8076 45.5307 36.2321C46.4362 35.9224 46.738 34.881 46.1796 34.1632L46.1344 33.7832Z" fill="#9781D2"/>
<path d="M27.6439 71.9585C27.0698 71.6397 26.4352 71.4727 25.7855 71.4727C23.1564 71.4727 21.2678 74.2662 21.026 77.6973C20.6332 83.3602 24.5616 85.8045 30.6205 85.2428" fill="#D7CDDD"/>
<path d="M25.9668 83.543L35.1986 91.9994C36.3922 93.4265 38.1449 94.2767 40.0185 94.3223L47.558 94.5196" stroke="#302454" stroke-width="3" stroke-miterlimit="10"/>
<path d="M48.2233 97.6776C50.4096 97.6776 52.1819 96.155 52.1819 94.2768C52.1819 92.3986 50.4096 90.876 48.2233 90.876C46.037 90.876 44.2646 92.3986 44.2646 94.2768C44.2646 96.155 46.037 97.6776 48.2233 97.6776Z" fill="#5B3FA1"/>
<path d="M24.1686 85.8354C20.6783 86.1087 17.5054 82.0551 17.0974 76.7565C16.6895 71.458 19.1825 66.9641 22.6879 66.6908C26.1932 66.4175 29.3511 70.4711 29.759 75.7697C30.167 81.0682 27.674 85.5621 24.1686 85.8354Z" fill="#5B3FA1"/>
<path d="M21.7813 83.1177C19.4998 83.2999 17.4147 80.385 17.1125 76.6198C16.8103 72.8546 18.427 69.6512 20.7085 69.469C22.99 69.2868 25.0751 72.2018 25.3773 75.967C25.6795 79.7321 24.0628 82.9355 21.7813 83.1177Z" fill="#8A63CA"/>
<path d="M22.9899 74.9951C22.8085 72.6267 21.9624 70.5923 20.8141 69.4384H20.8594C23.0201 69.2714 25.0145 72.2016 25.3167 75.9819C25.6189 79.7623 24.0928 82.9657 21.9322 83.1479C21.4638 83.163 20.9954 83.0871 20.5724 82.9201C20.1493 82.7531 19.8018 82.5102 19.5449 82.2218C21.6753 81.994 23.2769 78.7451 22.9899 74.9951Z" fill="#7658B1"/>
</g>
<g filter="url(#filter1_d_3194_5337)">
<path d="M139.902 196.873H158.098C169.084 196.873 178 186.149 178 172.937C178 159.724 169.084 149 158.098 149H120V172.937C120 186.149 128.916 196.873 139.902 196.873Z" fill="url(#paint5_linear_3194_5337)"/>
</g>
<path d="M150.463 175.28C150.08 176.398 149.61 177.003 148.698 177.003C147.904 177.003 147.434 176.519 147.434 175.764C147.434 175.038 147.846 174.464 148.669 174.071L151.992 172.408C153.374 171.713 154.079 170.534 154.079 168.901C154.079 165.999 151.874 164.246 148.816 164.246C145.846 164.246 143.788 166.12 143.317 168.811L146.111 169.294C146.552 167.632 147.522 166.816 148.992 166.816C150.198 166.816 151.139 167.571 151.139 168.66C151.139 169.718 150.757 170.262 149.698 170.776L147.258 171.924C145.581 172.71 144.758 173.95 144.758 175.643C144.758 177.94 146.375 179.391 148.757 179.391C150.845 179.391 152.227 178.333 152.844 176.217L150.463 175.28ZM147.14 185.135C147.993 185.981 149.522 185.981 150.345 185.135C151.198 184.258 151.198 182.747 150.345 181.9C149.522 181.024 147.993 181.024 147.14 181.9C146.317 182.747 146.317 184.258 147.14 185.135Z" fill="white"/>
<defs>
<filter id="filter0_d_3194_5337" x="0.201172" y="0.987305" width="141.798" height="182.51" filterUnits="userSpaceOnUse" color-interpolation-filters="sRGB">
<feFlood flood-opacity="0" result="BackgroundImageFix"/>
<feColorMatrix in="SourceAlpha" type="matrix" values="0 0 0 0 0 0 0 0 0 0 0 0 0 0 0 0 0 0 127 0" result="hardAlpha"/>
<feOffset dx="10" dy="5"/>
<feGaussianBlur stdDeviation="10"/>
<feColorMatrix type="matrix" values="0 0 0 0 0.0627451 0 0 0 0 0.0588235 0 0 0 0 0.0666667 0 0 0 0.3 0"/>
<feBlend mode="normal" in2="BackgroundImageFix" result="effect1_dropShadow_3194_5337"/>
<feBlend mode="normal" in="SourceGraphic" in2="effect1_dropShadow_3194_5337" result="shape"/>
</filter>
<filter id="filter1_d_3194_5337" x="100" y="133" width="98" height="87.873" filterUnits="userSpaceOnUse" color-interpolation-filters="sRGB">
<feFlood flood-opacity="0" result="BackgroundImageFix"/>
<feColorMatrix in="SourceAlpha" type="matrix" values="0 0 0 0 0 0 0 0 0 0 0 0 0 0 0 0 0 0 127 0" result="hardAlpha"/>
<feOffset dy="4"/>
<feGaussianBlur stdDeviation="10"/>
<feComposite in2="hardAlpha" operator="out"/>
<feColorMatrix type="matrix" values="0 0 0 0 0 0 0 0 0 0 0 0 0 0 0 0 0 0 0.15 0"/>
<feBlend mode="normal" in2="BackgroundImageFix" result="effect1_dropShadow_3194_5337"/>
<feBlend mode="normal" in="SourceGraphic" in2="effect1_dropShadow_3194_5337" result="shape"/>
</filter>
<linearGradient id="paint0_linear_3194_5337" x1="43.4027" y1="108.396" x2="43.3569" y2="155.218" gradientUnits="userSpaceOnUse">
<stop stop-color="#5D95E5"/>
<stop offset="1" stop-color="#3A6BB3"/>
</linearGradient>
<linearGradient id="paint1_linear_3194_5337" x1="43.5994" y1="102.657" x2="43.5994" y2="116.321" gradientUnits="userSpaceOnUse">
<stop stop-color="#5D95E5"/>
<stop offset="1" stop-color="#3A6BB3"/>
</linearGradient>
<radialGradient id="paint2_radial_3194_5337" cx="0" cy="0" r="1" gradientUnits="userSpaceOnUse" gradientTransform="translate(74.1996 64.0857) rotate(123.214) scale(76.771 52.3994)">
<stop offset="0.29" stop-color="#F4E9FC"/>
<stop offset="1" stop-color="#B4ABB7"/>
</radialGradient>
<linearGradient id="paint3_linear_3194_5337" x1="39.9578" y1="160.562" x2="38.4784" y2="151.713" gradientUnits="userSpaceOnUse">
<stop stop-color="#311256"/>
<stop offset="1" stop-color="#1E1D1F"/>
</linearGradient>
<linearGradient id="paint4_linear_3194_5337" x1="99.5794" y1="162.414" x2="63.6149" y2="115.941" gradientUnits="userSpaceOnUse">
<stop stop-color="#311256"/>
<stop offset="1" stop-color="#1E1D1F"/>
</linearGradient>
<linearGradient id="paint5_linear_3194_5337" x1="178" y1="196.873" x2="117.024" y2="153.151" gradientUnits="userSpaceOnUse">
<stop stop-color="#FC4760"/>
<stop offset="1" stop-color="#FF67C3"/>
</linearGradient>
</defs>
</svg>
